<svg width="600" height="314" viewBox="0 0 600 314" fill="none" xmlns="http://www.w3.org/2000/svg">
<path d="M336.549 210.857C340.466 210.857 343.395 214.105 342.695 219.008C342.026 223.753 338.396 226.778 334.479 226.778H326.583L325.309 235.789H321.934L325.436 210.889H336.549V210.857ZM336.294 213.691H328.398L326.965 223.912H334.702C336.613 223.912 338.714 222.065 339.224 218.594C339.702 215.378 338.237 213.691 336.326 213.691H336.294Z" fill="white"/>
<path d="M371.925 235.789H356.832L360.335 210.889H363.71L360.621 232.955H372.339L371.925 235.789Z" fill="white"/>
<path d="M411.059 223.53C410.072 230.599 404.532 236.299 397.208 236.299C389.885 236.299 385.65 230.408 386.669 223.148C387.656 216.015 393.228 210.379 400.52 210.379C407.812 210.379 412.078 216.27 411.059 223.53ZM390.139 223.53C389.375 229.071 392.241 233.083 397.336 233.083C402.43 233.083 406.793 228.88 407.589 223.148C408.353 217.608 405.519 213.595 400.361 213.595C395.202 213.595 390.935 217.767 390.139 223.53Z" fill="white"/>
<path d="M446.913 235.789H443.952V235.694L432.361 217.003L429.75 235.789H426.375L429.878 210.889H432.839V210.984L444.429 229.707L447.04 210.921H450.416L446.913 235.821V235.789Z" fill="white"/>
<path d="M488.785 222.734L488.371 225.568L486.938 235.757H484.391L484.327 233.624C481.589 235.375 478.627 236.235 476.176 236.235C468.725 236.235 464.617 230.344 465.636 223.084C466.623 215.952 472.227 210.284 479.487 210.316C482.799 210.316 486.269 211.589 489.04 213.977L487.862 216.429C485.25 214.487 482.162 213.532 479.328 213.532C474.106 213.5 469.903 217.703 469.107 223.466C468.342 229.007 471.208 233.019 476.303 233.019C478.787 233.019 481.493 232.255 484.232 230.822L484.964 225.536H479.837L480.251 222.702H488.753L488.785 222.734Z" fill="white"/>
<path d="M510.087 221.333H521.709L521.296 224.166H509.673L508.431 232.955H521.773L521.359 235.789H504.61L508.113 210.888H524.48L524.066 213.722H511.074L509.992 221.333H510.087ZM515.023 208.628L520.436 202.482H524.225L518.398 208.628H515.023Z" fill="white"/>
<path d="M542.916 221.333H554.538L554.124 224.167H542.502L541.26 232.955H554.602L554.188 235.789H537.471L540.974 210.889H557.34L556.926 213.723H543.935L542.852 221.333H542.916Z" fill="white"/>
<path d="M480.22 165.96C476.622 180.066 465.031 190.287 450.925 192.229C449.27 192.516 447.614 192.516 445.958 192.516C434.909 192.516 424.688 187.549 417.778 178.983C410.868 170.418 408.385 159.369 411.155 148.574L428.668 78.7131C431.215 68.6193 440.29 61.5185 450.703 61.5185H455.383L432.457 153.828C431.343 157.968 432.171 162.394 434.941 165.705C437.711 169.017 441.564 170.959 445.99 170.959C452.358 170.959 457.867 166.533 459.523 160.451L462.229 148.574L480.252 165.992L480.22 165.96ZM459.172 46.6483L437.074 46.3618L439.303 38.274C441.468 30.409 448.76 25.0914 456.912 25.4098L464.84 25.6964L459.141 46.6483H459.172Z" fill="#F47141"/>
<path d="M482.926 153.796C481.811 157.936 482.639 162.362 485.409 165.673C488.18 168.985 492.033 170.927 496.459 170.927C502.827 170.927 508.336 166.501 509.991 160.419L511.552 150.357L530.975 165.673C527.09 181.435 513.016 192.484 496.713 192.484C485.664 192.484 475.443 187.517 468.533 178.951C461.91 170.386 459.426 159.337 462.165 148.542L486.205 47.3807H468.183L473.723 25.8237H491.459L495.662 9.23413H517.506L513.558 25.8237H566.351L565.396 29.9632C563.04 40.1526 553.965 47.3807 543.489 47.3807H508.59L482.894 153.764L482.926 153.796Z" fill="#F47141"/>
<path d="M591.985 75.8472C599.181 84.954 601.665 96.5763 598.894 107.912L597.589 113.261C595.264 122.75 586.763 129.405 576.987 129.373L538.936 129.182L533.141 152.682C532.026 157.394 533.141 162.362 536.166 166.214C539.191 170.067 543.617 172.296 548.616 172.296C553.615 172.296 558.105 169.94 561.003 166.246C563.518 162.998 567.594 161.375 571.574 162.362L584.82 165.673C579.98 185.383 560.398 197.897 539.796 193.121C533.873 191.752 528.333 188.854 523.779 184.81C513.017 175.194 508.846 161.279 512.125 147.714L526.231 90.4945C530.371 73.6501 545.305 62.0278 562.435 62.0278C582.241 62.0278 592.017 75.8472 592.017 75.8472H591.985ZM578.165 102.945C579.28 98.2321 578.165 93.2647 575.14 89.4119C572.115 85.559 567.689 83.3301 562.69 83.3301C555.494 83.3301 549.157 88.2974 547.502 95.2071L544.477 107.371L571.924 107.594C574.822 107.594 577.401 105.715 578.197 102.945H578.165Z" fill="#F47141"/>
<path d="M297.129 161.056C297.129 161.056 293.276 170.99 298.498 170.927C303.72 170.863 301.587 189.331 301.587 189.331L298.498 192.484C298.498 192.484 278.533 192.484 279.361 174.875C280.189 157.235 297.129 161.056 297.129 161.056Z" fill="#F47141"/>
<path d="M152.503 202.132C152.503 202.132 152.28 202.132 152.185 202.132C129.832 201.367 88.1826 199.966 79.9993 158.986C76.4967 141.441 81.3685 122.527 93.4047 107.115C108.721 87.5009 133.844 75.4965 162.279 74.1273C182.976 73.1402 201.826 79.8588 214.022 92.5637C224.179 103.135 228.828 116.795 227.459 132.048C225.135 158.317 201.794 174.907 180.747 181.657C175.907 183.218 170.749 180.543 169.188 175.735C167.628 170.895 170.303 165.736 175.111 164.176C189.854 159.432 207.622 147.746 209.15 130.424C210.042 120.457 207.208 111.987 200.744 105.269C192.369 96.5121 178.327 91.7358 163.138 92.4682C140.021 93.5508 119.865 103.008 107.861 118.387C99.1362 129.564 95.5381 143.033 97.9899 155.356C102.002 175.321 115.821 182.485 152.822 183.759C157.885 183.918 161.865 188.185 161.674 193.248C161.515 198.215 157.439 202.132 152.503 202.132Z" fill="#F47141"/>
<path d="M254.461 309.63C258.154 310.84 262.23 311.636 265.828 310.999C267.611 310.68 269.14 309.884 270.031 308.674C270.987 307.496 271.337 305.809 271.4 304.089C271.56 300.714 269.999 297.179 268.248 293.709C266.465 290.27 264.332 286.926 262.039 283.678C252.837 270.719 241.819 258.937 230.261 247.952C218.638 237.03 206.252 226.904 193.101 218.371C186.542 214.136 179.76 210.315 172.85 207.322C166.004 204.392 158.871 202.259 152.598 202.131C147.536 202.036 143.492 197.833 143.587 192.738C143.683 187.675 147.886 183.631 152.981 183.727C153.267 183.727 153.554 183.727 153.84 183.79H153.904C163.87 184.937 172.245 188.535 179.982 192.579C187.688 196.718 194.725 201.495 201.38 206.621C214.69 216.906 226.599 228.433 237.648 240.692C248.634 253.015 258.887 265.943 267.357 280.24C269.458 283.838 271.401 287.499 273.056 291.416C273.884 293.39 274.617 295.396 275.126 297.53C275.381 298.612 275.604 299.695 275.699 300.873C275.763 301.446 275.763 302.083 275.763 302.688C275.731 303.261 275.667 303.834 275.604 304.408C275.253 306.668 274.521 309.12 272.674 310.967C270.891 312.846 268.376 313.674 266.178 313.801C263.918 313.96 261.784 313.642 259.715 313.132C257.645 312.623 255.734 311.922 253.792 310.999C253.41 310.808 253.219 310.33 253.41 309.948C253.569 309.566 254.015 309.407 254.365 309.534H254.397L254.461 309.63Z" fill="#F47141"/>
<path d="M325.182 191.783C324.29 189.905 323.048 188.44 321.743 187.166C320.406 185.893 319.036 184.778 317.476 183.791C317.03 183.504 316.425 183.568 316.043 183.982C315.629 184.428 315.629 185.16 316.107 185.574H316.171C318.495 187.803 320.724 190.573 321.488 193.248C321.87 194.585 321.711 195.7 321.17 196.528C320.628 197.356 319.578 198.152 318.399 198.693C317.508 199.139 316.043 199.425 314.547 199.553C313.05 199.68 311.458 199.68 309.834 199.585C306.586 199.425 303.306 198.98 299.995 198.47C292.608 197.228 285.22 195.541 277.865 193.662C273.502 195.477 261.084 199.68 246.723 195.764C232.84 191.943 226.599 182.199 224.498 177.996C223.383 177.646 222.269 177.295 221.154 176.945C208.036 172.837 195.012 168.602 181.575 164.686C181.32 164.622 181.065 164.559 180.779 164.495C175.812 163.508 170.972 166.756 169.985 171.723C168.997 176.69 172.245 181.53 177.213 182.517C190.459 185.16 203.896 188.217 217.302 191.178C230.739 194.14 244.24 197.101 257.804 199.744C271.401 202.323 285.029 204.807 299.071 205.953C302.606 206.208 306.14 206.367 309.77 206.24C311.585 206.176 313.432 206.017 315.343 205.698C317.221 205.348 319.196 204.902 321.297 203.629C323.017 202.45 324.672 200.858 325.596 198.534C326.551 196.209 326.137 193.598 325.246 191.783H325.182Z" fill="#F47141"/>
<path d="M349.541 248.302C348.936 249.735 348.14 250.5 347.216 251.232C346.293 251.964 345.306 252.506 344.287 252.951C342.249 253.843 340.115 254.257 338.014 254.48C333.811 254.926 329.639 254.639 325.564 254.098C317.412 252.92 309.547 250.722 301.873 248.143C286.526 242.921 271.751 236.298 257.295 229.197C228.382 214.9 200.648 198.597 173.296 181.721C168.965 179.046 167.628 173.378 170.303 169.08C172.977 164.749 178.645 163.412 182.944 166.087C183.167 166.214 183.358 166.341 183.549 166.501H183.581C209.15 185.383 235.133 203.692 262.262 219.995C275.827 228.147 289.71 235.789 304.166 242.061C311.394 245.182 318.781 247.888 326.328 249.64C330.117 250.468 333.938 251.041 337.695 250.945C339.574 250.882 341.421 250.659 343.109 250.086C343.937 249.799 344.733 249.449 345.433 248.971C346.134 248.557 346.77 247.825 346.993 247.443L347.153 247.156C347.503 246.551 348.299 246.328 348.904 246.71C349.477 247.029 349.668 247.729 349.445 248.302H349.541Z" fill="#F47141"/>
<path d="M148.236 183.758C152.63 184.586 156.165 186.083 159.445 187.739C162.692 189.426 165.622 191.273 168.392 193.247C173.933 197.196 178.836 201.526 183.485 206.08C192.751 215.186 200.871 225.153 207.972 235.82C211.506 241.169 214.786 246.742 217.556 252.601C220.294 258.491 222.746 264.637 223.765 271.483C224.243 274.89 224.338 278.552 223.383 282.277C222.46 285.971 220.04 289.696 216.664 291.639C215.009 292.658 213.066 293.295 211.124 293.549C209.182 293.772 207.303 293.549 205.583 293.104C202.113 292.116 199.311 290.397 196.763 288.136C196.222 287.659 196.158 286.831 196.636 286.289C197.05 285.812 197.75 285.716 198.292 286.035L198.387 286.098C200.807 287.531 203.705 288.55 206.348 288.709C209.022 288.9 211.347 288.073 213.003 286.512C214.722 284.888 215.868 283.042 216.219 280.685C216.601 278.329 216.346 275.686 215.709 273.011C214.404 267.662 211.793 262.312 208.831 257.25C205.806 252.187 202.336 247.315 198.61 242.634C191.095 233.336 182.625 224.707 173.487 217.224C168.902 213.499 164.157 210.06 159.317 207.226C156.897 205.825 154.445 204.583 152.089 203.628C149.733 202.673 147.408 202.068 145.657 201.94C140.594 201.59 136.741 197.228 137.092 192.133C137.442 187.038 141.804 183.217 146.899 183.567C147.249 183.567 147.599 183.631 147.918 183.695L148.3 183.758H148.236Z" fill="#F47141"/>
<path d="M297.67 65.7217L274.999 160.802C273.343 167.711 266.975 172.679 259.81 172.679C254.843 172.679 250.417 170.482 247.36 166.597C244.335 162.712 243.221 157.745 244.335 153.064L266.433 61.5823H251.595C246.787 61.5823 242.011 62.5375 237.553 64.3207C228.955 67.7914 213.066 73.6504 197.368 76.5161C207.812 80.4964 214.977 87.5334 218.989 92.4052C224.338 91.0997 230.579 89.0937 238.19 85.9413L231.344 114.44C234.591 139.308 226.631 152.682 222.269 157.968C222.587 169.112 227.905 179.748 237.68 187.103C240.578 189.3 243.826 191.02 247.296 192.166C269.235 199.489 290.888 186.657 296.046 165.769L314.674 87.1832C317.253 76.2296 308.974 65.7217 297.702 65.7217H297.67Z" fill="#F47141"/>
<path d="M132.156 7.0689L128.239 6.17731C126.711 5.73152 107.096 1.33737 84.7435 0.254741C81.1453 0.0636896 77.579 0 74.2038 0C47.2019 0 27.7783 5.7634 16.5381 17.131C8.6732 24.9641 4.53377 35.631 4.53377 47.9857V50.947H23.8936C23.8936 50.947 22.5244 41.4263 28.7654 35.2171C36.3757 27.6069 51.9145 23.563 73.758 23.563C86.6221 23.563 99.0086 24.964 107.16 26.174C94.5189 43.2731 84.9664 56.0099 66.1478 81.7699L50.195 103.613C38.9548 119.025 29.5615 131.857 22.206 142.015C15.9013 150.803 11.0613 157.522 7.78163 162.203C6.34874 164.113 5.23428 165.769 4.37455 167.074L3.80139 167.966C3.06903 168.858 2.62325 169.685 2.36852 170.227C-1.19777 175.799 -0.21068 181.435 1.89088 184.842C1.89088 184.842 3.22824 186.976 5.52086 188.217C7.81347 189.459 11.4434 189.969 11.4434 189.969C12.749 190.16 14.4684 190.351 16.1879 190.542C25.6449 191.847 50.7045 195.286 74.8406 195.509H77.0696C85.6669 195.509 92.6721 195.509 98.531 195.286C91.9079 190.86 82.9285 183.218 77.388 171.819C77.2288 171.819 77.0696 171.819 76.8785 171.819H75.2227C58.6968 171.628 41.7888 169.876 29.2112 168.38C52.2966 136.634 93.7547 80.4963 133.812 26.1103L137.474 20.7927C141.008 15.6662 138.238 8.59731 132.188 7.16442L132.156 7.0689Z" fill="#F47141"/>
<path d="M410.741 150.199L408.448 160.42C406.792 166.502 401.252 170.928 394.915 170.928C390.489 170.928 386.636 168.985 383.866 165.674C381.096 162.362 380.268 157.936 381.383 153.797L392.432 108.74C395.202 97.4047 392.718 85.8143 385.522 76.6757C378.899 68.3968 369.219 63.3976 358.711 62.5697V62.2831L347.439 61.8692C334.766 61.3915 323.558 70.0525 320.819 82.4709L332.442 83.0122L317.508 144.371L313.623 159.019C311.967 165.928 305.599 170.896 298.434 170.896V192.453C304.612 192.453 310.502 190.924 315.725 188.218C314.037 186.498 311.553 184.397 313.75 182.072C315.788 179.939 319.832 182.454 321.997 184.078C328.079 179.143 332.633 172.297 334.639 164.273L338.523 149.625L354.54 83.8401H355.909C360.876 83.8401 365.302 86.0372 368.359 89.9219C371.384 93.7748 372.499 98.7739 371.384 103.455L360.335 148.511V148.798C357.851 159.305 360.048 170.354 366.703 178.92C373.613 187.485 383.834 192.453 394.883 192.453C411.187 192.453 425.292 181.404 429.145 165.642L410.709 150.167L410.741 150.199Z" fill="#F47141"/>
</svg>
